# Blender v2.79 (sub 0) OBJ File: 'PlayerCharacter_Arms_V1.blend'
# www.blender.org
mtllib PlayerCharacter_Arms_V1.mtl
o GenericSimpleHand_NAM.002_Cube.008
v 0.264296 0.050526 -0.193031
v 0.458270 0.093203 -0.320303
v 0.223530 -0.046594 -0.297132
v 0.442346 -0.004324 -0.412989
v 0.356942 -0.094456 0.001242
v 0.614578 -0.094798 -0.148422
v 0.328241 -0.223475 -0.089464
v 0.598513 -0.178424 -0.213604
v 0.274390 -0.173514 -0.221235
v 0.513336 -0.134596 -0.329802
v 0.275342 -0.035731 -0.092833
v 0.536660 -0.011533 -0.227034
v 0.780796 0.070242 -0.407066
v 0.760741 -0.001856 -0.477808
v 0.799171 -0.079416 -0.456317
v 0.821182 -0.097750 -0.367693
v 0.831726 -0.010562 -0.314280
v 0.820201 0.031701 -0.362862
v 0.120831 -0.124402 -0.182383
v 0.130323 -0.026460 -0.123810
v 0.131029 -0.181164 -0.151119
v 0.188168 -0.121737 -0.012732
v 0.164938 -0.203907 -0.096958
v 0.160510 -0.053949 -0.044986
v 0.381660 0.079941 -0.220373
v 0.339564 -0.018417 -0.373587
v 0.461709 -0.207649 -0.142412
v 0.483873 -0.078687 -0.048010
v 0.425260 -0.029677 -0.176419
v 0.401935 -0.152740 -0.279186
v 0.299382 0.158124 -0.331067
v 0.330175 0.149305 -0.266736
v 0.388090 0.128364 -0.276666
v 0.438406 0.128453 -0.337436
v 0.419964 0.134087 -0.387067
v 0.357810 0.155295 -0.374994
v 0.428650 0.241743 -0.286656
v 0.423442 0.190424 -0.252374
v 0.461076 0.180705 -0.269034
v 0.474647 0.168037 -0.310107
v 0.478082 0.208200 -0.335482
v 0.463802 0.240093 -0.310940
v 0.201184 0.009279 -0.263201
v 0.468243 0.068572 -0.366447
v 0.340820 -0.196896 -0.028798
v 0.622746 -0.149880 -0.158320
v 0.789954 0.052970 -0.462788
v 0.861170 -0.060020 -0.333042
v 0.869767 0.001574 -0.415266
v 0.100462 -0.058402 -0.157141
v 0.165460 -0.164404 -0.027643
v 0.479805 -0.180557 -0.083751
v 0.305323 0.152913 -0.292515
v 0.438263 0.130965 -0.363515
v 0.432506 0.224691 -0.258524
v 0.487128 0.191680 -0.319096
v 0.486535 0.227424 -0.273342
v 0.615543 0.000553 -0.452739
v 0.670812 -0.104195 -0.399504
v 0.642561 0.072935 -0.361450
v 0.692872 0.012286 -0.301866
v 0.723405 -0.137495 -0.294457
v 0.727610 -0.040772 -0.246451
v 0.754101 -0.100373 -0.254580
v 0.645484 0.059977 -0.419524
v 0.419195 0.062010 -0.393193
v 0.438426 0.104516 -0.329282
v 0.366252 0.103685 -0.257206
v 0.297415 0.081776 -0.243538
v 0.268737 0.061347 -0.343547
v 0.337748 0.068409 -0.385591
v 0.255991 0.055621 -0.286357
v 0.442366 0.095920 -0.361566
v -0.126236 -0.088919 -0.049492
v -0.112151 -0.058395 -0.008144
v -0.117547 -0.213647 -0.032351
v -0.129382 -0.157031 -0.062784
v -0.067390 -0.218304 0.061513
v -0.090412 -0.236998 0.025252
v -0.077393 -0.085473 0.068357
v -0.059391 -0.169043 0.091833
v 0.044042 -0.138191 -0.136009
v 0.056948 -0.184625 -0.107433
v 0.094743 -0.196606 -0.016210
v 0.101040 -0.144186 0.008027
v 0.080640 -0.207234 -0.061570
v 0.033506 -0.070278 -0.120486
v 0.055181 -0.044056 -0.080654
v 0.085553 -0.069105 -0.013613
v -0.424836 -0.118771 0.093322
v -0.407674 -0.081580 0.143702
v -0.414248 -0.270743 0.114206
v -0.429963 -0.197729 0.076325
v -0.353135 -0.276417 0.228573
v -0.379480 -0.298608 0.189194
v -0.365324 -0.114572 0.236912
v -0.342153 -0.213028 0.267877
v -0.705918 -0.152072 0.232930
v -0.679593 -0.117270 0.278847
v -0.692577 -0.300872 0.246480
v -0.714363 -0.229025 0.215446
v -0.612111 -0.309723 0.343851
v -0.645311 -0.330272 0.310162
v -0.621296 -0.152149 0.358828
v -0.593882 -0.249422 0.380884
v -0.743896 -0.144921 0.258960
v -0.707040 -0.111233 0.297938
v -0.762489 -0.289653 0.293745
v -0.770367 -0.219540 0.253474
v -0.678496 -0.303547 0.387480
v -0.717948 -0.320286 0.358795
v -0.651686 -0.147491 0.379385
v -0.644621 -0.244608 0.414287
v -0.797917 -0.118620 0.309260
v -0.748293 -0.084396 0.328721
v -0.814787 -0.253324 0.373085
v -0.830012 -0.189411 0.325303
v -0.706610 -0.263610 0.438094
v -0.754212 -0.279376 0.426055
v -0.672693 -0.114905 0.394797
v -0.661866 -0.206009 0.442575
v -0.865430 0.370143 0.490157
v -0.783709 0.368968 0.491533
v -0.954873 0.279284 0.635813
v -0.940457 0.338875 0.544100
v -0.829189 0.204679 0.708867
v -0.886845 0.222377 0.709511
v -0.704774 0.302087 0.578901
v -0.735782 0.224537 0.679386
v -0.809494 0.782564 0.578633
v -0.715781 0.742522 0.585422
v -0.941118 0.815581 0.760701
v -0.902719 0.817995 0.638751
v -0.825205 0.720512 0.873769
v -0.878228 0.764229 0.866828
v -0.648194 0.685695 0.707490
v -0.706609 0.676461 0.839791
vt 0.198885 0.570966
vt 0.170271 0.568718
vt 0.158538 0.556882
vt 0.182316 0.549418
vt 0.159235 0.375831
vt 0.120364 0.373131
vt 0.114745 0.327200
vt 0.164283 0.324554
vt 0.165778 0.302015
vt 0.111750 0.306041
vt 0.107794 0.286850
vt 0.164840 0.263836
vt 0.167874 0.634141
vt 0.120193 0.633368
vt 0.125329 0.572303
vt 0.171221 0.586924
vt 0.215091 0.306282
vt 0.217617 0.267021
vt 0.277782 0.300713
vt 0.281625 0.321889
vt 0.047255 0.414529
vt 0.036634 0.431801
vt 0.012114 0.386130
vt 0.029255 0.380297
vt 0.072644 0.368168
vt 0.066542 0.402690
vt 0.041765 0.378879
vt 0.045592 0.364978
vt 0.211766 0.454986
vt 0.201044 0.432895
vt 0.264426 0.409421
vt 0.273885 0.439485
vt 0.170131 0.690039
vt 0.108336 0.684907
vt 0.152761 0.431802
vt 0.116104 0.428203
vt 0.029594 0.361858
vt 0.000181 0.357352
vt 0.034611 0.344526
vt 0.018017 0.334512
vt 0.058041 0.595603
vt 0.053374 0.632196
vt 0.000181 0.631327
vt 0.004701 0.605393
vt 0.071205 0.336523
vt 0.045962 0.350274
vt 0.060559 0.321474
vt 0.052696 0.663631
vt 0.005842 0.655034
vt 0.307802 0.357892
vt 0.311982 0.337589
vt 0.386440 0.339280
vt 0.389261 0.357959
vt 0.306392 0.382447
vt 0.387225 0.385124
vt 0.232954 0.636343
vt 0.216905 0.588836
vt 0.278007 0.602694
vt 0.280840 0.635386
vt 0.206898 0.378627
vt 0.211101 0.328164
vt 0.268304 0.353607
vt 0.269300 0.382238
vt 0.221010 0.687055
vt 0.280416 0.664726
vt 0.108277 0.469764
vt 0.120021 0.453489
vt 0.123397 0.475986
vt 0.116287 0.479989
vt 0.137568 0.528385
vt 0.151667 0.527405
vt 0.127405 0.555792
vt 0.124975 0.536164
vt 0.188407 0.469661
vt 0.188166 0.493362
vt 0.163492 0.500295
vt 0.163382 0.491099
vt 0.146651 0.457362
vt 0.170906 0.461765
vt 0.156692 0.483556
vt 0.140253 0.479023
vt 0.129090 0.564218
vt 0.128345 0.506893
vt 0.121644 0.502255
vt 0.124958 0.499585
vt 0.129471 0.502562
vt 0.135190 0.509492
vt 0.134432 0.504191
vt 0.140144 0.515089
vt 0.109556 0.484988
vt 0.114761 0.503153
vt 0.121999 0.521483
vt 0.101673 0.480773
vt 0.303613 0.406867
vt 0.382550 0.410853
vt 0.313142 0.314052
vt 0.386173 0.315755
vt 0.051625 0.300437
vt 0.213974 0.493501
vt 0.272270 0.462281
vt 0.098695 0.457725
vt 0.093370 0.477641
vt 0.307360 0.436885
vt 0.379482 0.438381
vt 0.306453 0.457995
vt 0.379140 0.459468
vt 0.311831 0.635485
vt 0.310366 0.606456
vt 0.377714 0.601885
vt 0.380562 0.634144
vt 0.314113 0.665077
vt 0.381643 0.667023
vt 0.532202 0.418069
vt 0.528429 0.449682
vt 0.540650 0.352078
vt 0.537732 0.385797
vt 0.537318 0.331936
vt 0.528264 0.475388
vt 0.536925 0.302317
vt 0.516399 0.598000
vt 0.519834 0.637050
vt 0.521243 0.675612
vt 0.695207 0.334617
vt 0.698808 0.355338
vt 0.685831 0.454200
vt 0.685546 0.479337
vt 0.694089 0.305398
vt 0.662389 0.596703
vt 0.665633 0.635333
vt 0.667110 0.673406
vt 0.696064 0.389955
vt 0.690125 0.422509
vt 0.699824 0.422824
vt 0.695377 0.454996
vt 0.708579 0.354751
vt 0.705856 0.389737
vt 0.704795 0.333959
vt 0.694835 0.480318
vt 0.703393 0.304709
vt 0.671075 0.597131
vt 0.674379 0.635706
vt 0.675819 0.673739
vt 0.686818 0.636245
vt 0.688242 0.674215
vt 0.720021 0.389414
vt 0.713897 0.423347
vt 0.709223 0.456276
vt 0.722571 0.353793
vt 0.718513 0.332902
vt 0.707890 0.482005
vt 0.716543 0.303487
vt 0.683511 0.597725
vt 0.870971 0.284144
vt 0.876580 0.323391
vt 0.825084 0.587167
vt 0.829913 0.637140
vt 0.830983 0.685518
vt 0.881612 0.391936
vt 0.873147 0.434731
vt 0.864595 0.472239
vt 0.883467 0.346327
vt 0.860373 0.504178
vt 0.999819 0.341162
vt 0.997305 0.393838
vt 0.991013 0.315297
vt 0.974698 0.487187
vt 0.969521 0.527044
vt 0.983639 0.263837
vt 0.929342 0.581788
vt 0.936552 0.636560
vt 0.937649 0.690040
vt 0.985967 0.442769
vt 0.000000 0.000000
vt 0.000000 0.000000
vt 0.000000 0.000000
vt 0.000000 0.000000
vt 0.000000 0.000000
vt 0.000000 0.000000
vt 0.000000 0.000000
vt 0.000000 0.000000
vn 0.1704 0.3288 0.9289
vn -0.0005 -0.9317 -0.3633
vn 0.5335 -0.2233 0.8158
vn 0.4087 0.6456 0.6451
vn -0.0400 -0.2859 0.9574
vn -0.0491 0.9640 -0.2613
vn -0.2189 -0.4643 -0.8582
vn -0.7522 0.0552 -0.6566
vn 0.2439 0.8822 0.4028
vn -0.2236 -0.6184 -0.7534
vn 0.6100 0.7923 -0.0160
vn 0.8029 0.4755 0.3596
vn 0.1871 0.7859 0.5893
vn 0.1027 -0.9506 -0.2930
vn 0.5298 -0.7948 0.2958
vn 0.1811 0.7638 0.6195
vn 0.2550 -0.9411 0.2221
vn -0.0284 -0.9186 -0.3941
vn -0.0631 0.8357 0.5455
vn -0.1020 -0.9419 -0.3202
vn -0.0257 0.6952 0.7184
vn -0.3667 -0.5567 -0.7454
vn -0.2868 -0.6073 -0.7409
vn 0.1084 0.9198 0.3771
vn 0.2301 0.6176 0.7520
vn 0.3790 -0.3173 0.8693
vn -0.0203 -0.9342 -0.3562
vn 0.7853 0.0485 -0.6172
vn 0.1163 -0.4188 0.9006
vn 0.5063 -0.7580 0.4112
vn -0.7115 0.4504 0.5394
vn -0.5470 0.2514 -0.7985
vn -0.1124 0.1185 -0.9866
vn 0.7339 0.0552 0.6770
vn 0.8531 0.4543 -0.2566
vn 0.1458 0.9223 0.3580
vn 0.7703 -0.1745 -0.6133
vn -0.4150 0.4791 0.7735
vn 0.0126 0.5798 -0.8146
vn -0.3332 0.7935 -0.5093
vn -0.5611 0.7569 0.3351
vn 0.8037 -0.5766 -0.1473
vn 0.3237 -0.0158 0.9460
vn 0.8489 -0.3904 0.3562
vn -0.9241 0.3815 -0.0221
vn 0.9953 0.0792 0.0565
vn 0.2437 -0.9064 0.3450
vn -0.2711 -0.5265 -0.8058
vn 0.4484 -0.4707 0.7598
vn 0.5502 0.0772 0.8315
vn 0.7862 -0.5337 -0.3114
vn 0.4978 -0.0077 -0.8673
vn -0.5635 0.8227 -0.0755
vn -0.1892 0.4634 -0.8657
vn -0.1433 -0.8763 0.4600
vn 0.3482 -0.8869 0.3037
vn -0.2052 0.5673 -0.7975
vn 0.6060 0.0584 0.7933
vn 0.1799 0.7612 0.6230
vn 0.4888 -0.8240 0.2865
vn 0.0468 -0.9338 -0.3547
vn 0.2077 0.7462 0.6325
vn -0.2025 -0.5707 -0.7958
vn -0.0138 0.9400 -0.3408
vn 0.6431 0.7394 -0.1992
vn -0.8171 0.3107 -0.4857
vn 0.3570 0.8539 0.3787
vn -0.2476 0.0089 -0.9688
vn -0.5152 -0.1389 -0.8458
vn -0.6115 0.7853 0.0973
vn 0.3905 0.4201 -0.8192
vn -0.1220 0.8509 0.5110
vn -0.4075 0.1680 -0.8976
vn -0.2868 0.8399 -0.4607
vn 0.0600 0.9467 0.3165
vn 0.3976 0.3277 0.8571
vn 0.1961 0.3974 0.8964
vn -0.0306 0.9363 0.3499
vn -0.3910 0.8346 -0.3880
vn -0.5138 0.1391 -0.8465
vn 0.3239 -0.4430 0.8360
vn -0.3909 -0.5256 -0.7556
vn -0.1324 -0.9292 -0.3450
vn 0.3080 -0.8855 0.3478
vn -0.4364 0.2050 -0.8761
vn -0.0016 -0.9331 -0.3597
vn 0.3406 -0.9020 0.2652
vn -0.3162 0.8115 -0.4914
vn 0.5092 -0.5129 0.6911
vn 0.0797 0.9505 0.3002
vn 0.4516 0.3479 0.8216
vn -0.3080 -0.4940 -0.8131
vn 0.2579 -0.9107 0.3225
vn -0.3328 0.8212 -0.4636
vn 0.4026 -0.5477 0.7334
vn 0.0380 0.9377 0.3454
vn 0.3567 0.3290 0.8744
vn -0.3399 -0.4743 -0.8121
vn -0.4513 0.2300 -0.8622
vn -0.0576 -0.9343 -0.3518
vn -0.5165 0.2434 -0.8210
vn -0.2906 -0.9297 -0.2263
vn 0.1447 -0.9144 0.3781
vn -0.1944 0.8291 -0.5242
vn 0.4163 -0.5638 0.7133
vn 0.3061 0.9318 0.1951
vn 0.5500 0.3232 0.7701
vn -0.5478 -0.4641 -0.6961
vn 0.8928 0.2496 0.3750
vn -0.8091 -0.4137 -0.4173
vn -0.6633 0.2151 -0.7167
vn -0.5561 -0.8252 0.0989
vn 0.0341 -0.8154 0.5779
vn -0.1419 0.7433 -0.6538
vn 0.4397 -0.4974 0.7478
vn 0.6034 0.7758 -0.1846
vn 0.3726 -0.3932 0.8406
vn 0.7602 0.2906 -0.5811
vn 0.9839 0.0361 0.1750
vn -0.9759 -0.1662 -0.1415
vn -0.6506 0.1764 -0.7386
vn -0.7570 -0.4498 0.4739
vn -0.1017 -0.5135 0.8520
vn 0.0609 0.3480 -0.9355
vn -0.8360 -0.1226 0.5348
vn -0.2101 -0.2826 0.9359
vn 0.0948 0.2108 -0.9729
vn 0.2386 -0.3168 0.9180
vn 0.8270 0.0290 -0.5615
vn 0.9377 -0.1956 0.2873
vn -0.9725 0.0953 -0.2127
vn -0.5432 0.2233 -0.8094
vn 0.9085 0.0428 -0.4156
usemtl Material
s off
f 69/1/1 68/2/1 33/3/1 32/4/1
f 30/5/2 10/6/2 8/7/2 27/8/2
f 52/9/3 46/10/3 6/11/3 28/12/3
f 29/13/4 12/14/4 2/15/4 25/16/4
f 45/17/5 5/18/5 22/19/5 51/20/5
f 65/21/6 60/22/6 13/23/6 47/24/6
f 59/25/7 58/26/7 14/27/7 15/28/7
f 43/29/8 3/30/8 19/31/8 50/32/8
f 28/33/9 6/34/9 12/14/9 29/13/9
f 26/35/10 4/36/10 10/6/10 30/5/10
f 49/37/11 47/24/11 13/23/11 18/38/11
f 48/39/12 49/37/12 18/38/12 17/40/12
f 60/41/13 61/42/13 18/43/13 13/44/13
f 62/45/14 59/25/14 15/28/14 16/46/14
f 64/47/15 62/45/15 16/46/15 48/39/15
f 61/42/16 63/48/16 17/49/16 18/43/16
f 86/50/17 84/51/17 78/52/17 79/53/17
f 83/54/18 86/50/18 79/53/18 76/55/18
f 11/56/19 1/57/19 20/58/19 24/59/19
f 9/60/20 7/61/20 23/62/20 21/63/20
f 5/64/21 11/56/21 24/59/21 22/65/21
f 3/30/22 9/60/22 21/63/22 19/31/22
f 3/30/23 26/35/23 30/5/23 9/60/23
f 5/64/24 28/33/24 29/13/24 11/56/24
f 11/56/25 29/13/25 25/16/25 1/57/25
f 45/17/26 52/9/26 28/12/26 5/18/26
f 9/60/27 30/5/27 27/8/27 7/61/27
f 73/66/28 66/67/28 35/68/28 54/69/28
f 32/4/29 33/3/29 39/70/29 38/71/29
f 33/3/30 34/72/30 40/73/30 39/70/30
f 72/74/31 69/75/31 32/76/31 53/77/31
f 71/78/32 70/79/32 31/80/32 36/81/32
f 66/67/33 71/78/33 36/81/33 35/68/33
f 68/2/34 67/82/34 34/72/34 33/3/34
f 57/83/35 56/84/35 41/85/35 42/86/35
f 55/87/36 57/83/36 42/86/36 37/88/36
f 54/69/37 35/68/37 41/85/37 56/84/37
f 53/77/38 32/76/38 38/89/38 55/87/38
f 35/68/39 36/81/39 42/86/39 41/85/39
f 36/81/40 31/80/40 37/88/40 42/86/40
f 31/80/41 53/77/41 55/87/41 37/88/41
f 34/90/42 54/69/42 56/84/42 40/91/42
f 38/89/43 39/92/43 57/83/43 55/87/43
f 39/92/44 40/91/44 56/84/44 57/83/44
f 70/79/45 72/74/45 53/77/45 31/80/45
f 67/93/46 73/66/46 54/69/46 34/90/46
f 7/61/47 27/8/47 52/9/47 45/17/47
f 82/94/48 83/54/48 76/55/48 77/95/48
f 84/51/49 85/96/49 81/97/49 78/52/49
f 63/98/50 64/47/50 48/39/50 17/40/50
f 16/46/51 15/28/51 49/37/51 48/39/51
f 15/28/52 14/27/52 47/24/52 49/37/52
f 1/99/53 43/29/53 50/32/53 20/100/53
f 58/26/54 65/21/54 47/24/54 14/27/54
f 7/61/55 45/17/55 51/20/55 23/62/55
f 27/8/56 8/7/56 46/10/56 52/9/56
f 4/36/57 44/101/57 65/21/57 58/26/57
f 6/11/58 46/10/58 64/47/58 63/98/58
f 12/14/59 6/34/59 63/48/59 61/42/59
f 46/10/60 8/7/60 62/45/60 64/47/60
f 8/7/61 10/6/61 59/25/61 62/45/61
f 2/15/62 12/14/62 61/42/62 60/41/62
f 10/6/63 4/36/63 58/26/63 59/25/63
f 44/101/64 2/102/64 60/22/64 65/21/64
f 2/102/65 44/101/65 73/66/65 67/93/65
f 3/30/66 43/29/66 72/74/66 70/79/66
f 25/16/67 2/15/67 67/82/67 68/2/67
f 4/36/68 26/35/68 71/78/68 66/67/68
f 26/35/69 3/30/69 70/79/69 71/78/69
f 43/29/70 1/99/70 69/75/70 72/74/70
f 44/101/71 4/36/71 66/67/71 73/66/71
f 1/57/72 25/16/72 68/2/72 69/1/72
f 87/103/73 82/94/73 77/95/73 74/104/73
f 88/105/74 87/103/74 74/104/74 75/106/74
f 89/107/75 88/108/75 75/109/75 80/110/75
f 85/111/76 89/107/76 80/110/76 81/112/76
f 22/65/77 24/59/77 89/107/77 85/111/77
f 24/59/78 20/58/78 88/108/78 89/107/78
f 20/100/79 50/32/79 87/103/79 88/105/79
f 50/32/80 19/31/80 82/94/80 87/103/80
f 51/20/81 22/19/81 85/96/81 84/51/81
f 19/31/82 21/63/82 83/54/82 82/94/82
f 21/63/83 23/62/83 86/50/83 83/54/83
f 23/62/84 51/20/84 84/51/84 86/50/84
f 74/104/85 77/95/85 93/113/85 90/114/85
f 76/55/86 79/53/86 95/115/86 92/116/86
f 79/53/87 78/52/87 94/117/87 95/115/87
f 75/106/88 74/104/88 90/114/88 91/118/88
f 78/52/89 81/97/89 97/119/89 94/117/89
f 80/110/90 75/109/90 91/120/90 96/121/90
f 81/112/91 80/110/91 96/121/91 97/122/91
f 77/95/92 76/55/92 92/116/92 93/113/92
f 95/115/93 94/117/93 102/123/93 103/124/93
f 91/118/94 90/114/94 98/125/94 99/126/94
f 94/117/95 97/119/95 105/127/95 102/123/95
f 96/121/96 91/120/96 99/128/96 104/129/96
f 97/122/97 96/121/97 104/129/97 105/130/97
f 93/113/98 92/116/98 100/131/98 101/132/98
f 90/114/99 93/113/99 101/132/99 98/125/99
f 92/116/100 95/115/100 103/124/100 100/131/100
f 98/125/101 101/132/101 109/133/101 106/134/101
f 100/131/102 103/124/102 111/135/102 108/136/102
f 103/124/103 102/123/103 110/137/103 111/135/103
f 99/126/104 98/125/104 106/134/104 107/138/104
f 102/123/105 105/127/105 113/139/105 110/137/105
f 104/129/106 99/128/106 107/140/106 112/141/106
f 105/130/107 104/129/107 112/141/107 113/142/107
f 101/132/108 100/131/108 108/136/108 109/133/108
f 113/142/109 112/141/109 120/143/109 121/144/109
f 109/133/110 108/136/110 116/145/110 117/146/110
f 106/134/111 109/133/111 117/146/111 114/147/111
f 108/136/112 111/135/112 119/148/112 116/145/112
f 111/135/113 110/137/113 118/149/113 119/148/113
f 107/138/114 106/134/114 114/147/114 115/150/114
f 110/137/115 113/139/115 121/151/115 118/149/115
f 112/141/116 107/140/116 115/152/116 120/143/116
f 118/149/117 121/151/117 129/153/117 126/154/117
f 120/143/118 115/152/118 123/155/118 128/156/118
f 121/144/119 120/143/119 128/156/119 129/157/119
f 117/146/120 116/145/120 124/158/120 125/159/120
f 114/147/121 117/146/121 125/159/121 122/160/121
f 116/145/122 119/148/122 127/161/122 124/158/122
f 119/148/123 118/149/123 126/154/123 127/161/123
f 115/150/124 114/147/124 122/160/124 123/162/124
f 124/158/125 127/161/125 135/163/125 132/164/125
f 127/161/126 126/154/126 134/165/126 135/163/126
f 123/162/127 122/160/127 130/166/127 131/167/127
f 126/154/128 129/153/128 137/168/128 134/165/128
f 128/156/129 123/155/129 131/169/129 136/170/129
f 129/157/130 128/156/130 136/170/130 137/171/130
f 125/159/131 124/158/131 132/164/131 133/172/131
f 122/160/132 125/159/132 133/172/132 130/166/132
f 93/173/133 90/174/133 91/175/133 96/176/133 97/177/133 94/178/133 95/179/133 92/180/133
