# Blender v2.78 (sub 0) OBJ File: '21.blend'
# www.blender.org
mtllib Candy_01.mtl
o Circle.002
v 0.000000 1.612860 2.425515
v -1.140464 1.140464 2.425516
v -1.612860 -0.000000 2.425515
v -1.049504 -0.997010 2.425515
v 0.000000 -1.254770 2.425515
v 1.049504 -0.997010 2.425515
v 1.612860 0.000000 2.425515
v 1.140464 1.140464 2.425516
v 0.000000 1.019015 3.206635
v -0.720552 0.720552 3.206635
v -1.019014 -0.000000 3.206635
v -0.720552 -0.720552 3.109652
v 0.000000 -1.019015 3.109652
v 0.720552 -0.720552 3.109652
v 1.019015 0.000000 3.206635
v 0.720552 0.720552 3.206635
v 0.000000 0.146066 3.373773
v -0.103284 0.103284 3.373773
v -0.146066 -0.000000 3.373773
v -0.103284 -0.103284 3.373773
v 0.000000 -0.146066 3.373773
v 0.103284 -0.103284 3.373773
v 0.146066 -0.000000 3.373773
v 0.103284 0.103284 3.373773
v 0.000000 0.635441 4.912437
v -0.932162 0.254016 4.776121
v -1.318276 -0.226999 4.508342
v -0.932162 -0.781553 4.299086
v 0.000000 -1.142805 4.162771
v 0.932162 -0.781553 4.299086
v 1.318276 -0.226999 4.508342
v 0.932162 0.254016 4.776121
v 0.000000 0.486046 4.856065
v -0.819253 0.148378 4.736260
v -1.158599 -0.226999 4.508342
v -0.819253 -0.675915 4.338948
v 0.000000 -0.993410 4.219144
v 0.819254 -0.675915 4.338948
v 1.158599 -0.226999 4.508342
v 0.819254 0.148378 4.736260
v 0.000000 0.000000 3.504895
v 0.000000 1.612860 0.342239
v -1.140464 1.140464 0.342239
v -1.612860 -0.000000 0.342239
v -1.049504 -0.997010 0.342239
v 0.000000 -1.254770 0.342239
v 1.049504 -0.997010 0.342239
v 1.612860 0.000000 0.342239
v 1.140464 1.140464 0.342239
v 0.000000 1.019015 -0.438881
v -0.720552 0.720552 -0.438881
v -1.019014 -0.000000 -0.438881
v -0.720552 -0.720552 -0.341897
v 0.000000 -1.019015 -0.341897
v 0.720552 -0.720552 -0.341897
v 1.019015 0.000000 -0.438881
v 0.720552 0.720552 -0.438881
v 0.000000 0.146066 -0.606019
v -0.103284 0.103284 -0.606019
v -0.146066 -0.000000 -0.606019
v -0.103284 -0.103284 -0.606019
v 0.000000 -0.146066 -0.606019
v 0.103284 -0.103284 -0.606019
v 0.146066 -0.000000 -0.606019
v 0.103284 0.103284 -0.606019
v -0.017408 0.531561 -2.217383
v -0.945450 0.258605 -2.069793
v -1.323599 -0.263736 -1.774590
v -0.931323 -0.665319 -1.541393
v 0.004792 -0.920392 -1.386998
v 0.932834 -0.647436 -1.534586
v 1.312716 -0.238446 -1.764964
v 0.918707 0.276488 -2.062986
v -0.015739 0.422378 -2.154941
v -0.831371 0.182484 -2.025228
v -1.163937 -0.262205 -1.774007
v -0.819605 -0.587033 -1.585135
v 0.003123 -0.811209 -1.449440
v 0.818755 -0.571315 -1.579152
v 1.153054 -0.239978 -1.765547
v 0.806989 0.198201 -2.019245
v 0.000000 0.000000 -0.737141
v -0.000000 1.746371 1.428525
v -1.234871 1.234871 1.428525
v -1.746371 -0.000000 1.428525
v -1.136381 -1.029118 1.428525
v 0.000000 -1.300177 1.428525
v 1.136381 -1.029117 1.428525
v 1.746371 0.000000 1.428525
v 1.234871 1.234871 1.428525
v 4.029119 1.612860 -0.533749
v 3.006171 1.140464 -0.029532
v 2.582452 -0.000000 0.179322
v 3.087758 -0.997010 -0.069746
v 4.029119 -1.254770 -0.533749
v 4.970480 -0.997010 -0.997752
v 5.475787 0.000000 -1.246820
v 5.052068 1.140464 -1.037966
v 4.374465 1.019015 0.166882
v 3.728160 0.720552 0.485450
v 3.460452 -0.000000 0.617405
v 3.685282 -0.720552 0.398460
v 4.331587 -1.019015 0.079892
v 4.977892 -0.720552 -0.238675
v 5.288478 0.000000 -0.283641
v 5.020770 0.720552 -0.151685
v 4.448359 0.146066 0.316798
v 4.355718 0.103284 0.362462
v 4.317344 -0.000000 0.381376
v 4.355718 -0.103284 0.362462
v 4.448359 -0.146066 0.316798
v 4.541001 -0.103284 0.271134
v 4.579374 -0.000000 0.252220
v 4.541001 0.103284 0.271134
v 5.128627 0.635441 1.696915
v 4.232250 0.254016 1.986769
v 3.767533 -0.226999 1.917289
v 4.021345 -0.781553 1.558888
v 4.797188 -1.142805 1.024496
v 5.693565 -0.781553 0.734640
v 6.132409 -0.226999 0.751628
v 5.904470 0.254016 1.162522
v 5.103704 0.486046 1.646351
v 4.315901 0.148378 1.901097
v 3.910756 -0.226999 1.846694
v 4.140243 -0.675915 1.544724
v 4.822111 -0.993410 1.075060
v 5.609915 -0.675915 0.820314
v 5.989185 -0.226999 0.822223
v 5.785573 0.148378 1.176687
v 4.506330 0.000000 0.434409
v 3.108070 1.612860 -2.402360
v 2.085121 1.140464 -1.898143
v 1.661402 -0.000000 -1.689289
v 2.166708 -0.997010 -1.938358
v 3.108070 -1.254770 -2.402360
v 4.049431 -0.997010 -2.866363
v 4.554738 0.000000 -3.115432
v 4.131018 1.140464 -2.906578
v 2.762724 1.019015 -3.102992
v 2.116419 0.720552 -2.784424
v 1.848711 -0.000000 -2.652469
v 2.159297 -0.720552 -2.697434
v 2.805602 -1.019015 -3.016002
v 3.451907 -0.720552 -3.334570
v 3.676737 0.000000 -3.553514
v 3.409029 0.720552 -3.421559
v 2.688830 0.146066 -3.252907
v 2.596189 0.103284 -3.207244
v 2.557815 -0.000000 -3.188330
v 2.596189 -0.103284 -3.207244
v 2.688830 -0.146066 -3.252907
v 2.781471 -0.103284 -3.298572
v 2.819845 -0.000000 -3.317486
v 2.781471 0.103284 -3.298572
v 1.960806 0.531561 -4.690537
v 1.193644 0.258605 -4.147852
v 0.984973 -0.263736 -3.715883
v 1.439929 -0.665319 -3.680146
v 2.347845 -0.920392 -3.955532
v 3.115008 -0.647436 -4.498214
v 3.353893 -0.238446 -4.872806
v 2.868723 0.276488 -4.965922
v 1.989910 0.422378 -4.635267
v 1.315670 0.182484 -4.158316
v 1.128441 -0.262205 -3.785949
v 1.520796 -0.587033 -3.768774
v 2.318741 -0.811209 -4.010802
v 2.992981 -0.571315 -4.487752
v 3.210424 -0.239978 -4.802740
v 2.787855 0.198201 -4.877295
v 2.630859 0.000000 -3.370519
v 3.588334 1.746371 -1.428007
v 2.480707 1.234871 -0.882051
v 2.021913 -0.000000 -0.655909
v 2.569048 -1.029118 -0.925595
v 3.588334 -1.300177 -1.428007
v 4.607620 -1.029117 -1.930419
v 5.154756 0.000000 -2.200106
v 4.695961 1.234871 -1.973964
v 3.425529 1.730953 -1.758304
v 3.262545 1.685644 -2.088964
v 2.192356 1.191433 -1.561461
v 2.326604 1.223471 -1.216637
v 1.749069 -0.001699 -1.342962
v 1.871413 -0.001699 -0.992271
v 2.277711 -1.027640 -1.603533
v 2.414250 -1.038536 -1.259839
v 3.262545 -1.294576 -2.088964
v 3.425529 -1.309985 -1.758304
v 4.247379 -1.027639 -2.574394
v 4.436808 -1.038536 -2.256770
v 4.776021 -0.001699 -2.834965
v 4.979644 -0.001699 -2.524337
v 4.332734 1.191433 -2.616467
v 4.524455 1.223471 -2.299972
v 2.639174 1.223471 -0.582500
v 2.817496 1.191433 -0.293186
v 2.183983 -0.001699 -0.358134
v 2.374209 -0.001699 -0.074688
v 2.726820 -1.038536 -0.625701
v 2.902851 -1.027639 -0.335258
v 3.738099 -1.309985 -1.124167
v 3.887685 -1.294576 -0.820689
v 4.749378 -1.038535 -1.622633
v 4.872519 -1.027639 -1.306120
v 5.292215 -0.001699 -1.890200
v 5.401161 -0.001699 -1.566690
v 4.837025 1.223471 -1.665834
v 4.957874 1.191433 -1.348191
v 3.887685 1.685644 -0.820689
v 3.738099 1.730953 -1.124167
v -0.000000 1.727636 1.060985
v -0.000000 1.682419 0.693087
v -1.190714 1.189209 0.693087
v -1.222687 1.221182 1.060985
v -1.683924 -0.001505 0.693087
v -1.729141 -0.001505 1.060985
v -1.095746 -1.025367 0.693087
v -1.125169 -1.036241 1.060985
v 0.000000 -1.291762 0.693087
v 0.000000 -1.307140 1.060985
v 1.095747 -1.025367 0.693087
v 1.125170 -1.036241 1.060985
v 1.683924 -0.001505 0.693087
v 1.729141 -0.001505 1.060985
v 1.190714 1.189209 0.693087
v 1.222687 1.221182 1.060985
v -1.222687 1.221182 1.766539
v -1.190714 1.189209 2.104195
v -1.729141 -0.001505 1.766539
v -1.683924 -0.001505 2.104195
v -1.125169 -1.036241 1.766539
v -1.095746 -1.025367 2.104195
v 0.000000 -1.307140 1.766539
v 0.000000 -1.291762 2.104195
v 1.125170 -1.036241 1.766539
v 1.095746 -1.025367 2.104195
v 1.729141 -0.001505 1.766539
v 1.683924 -0.001505 2.104195
v 1.222687 1.221182 1.766539
v 1.190714 1.189209 2.104195
v -0.000000 1.682419 2.104195
v -0.000000 1.727636 1.766539
vn 0.9228 0.3822 0.0487
vn -0.8616 -0.5068 0.0298
vn 0.2330 -0.9723 -0.0164
vn 0.7560 0.3132 0.5748
vn 0.2755 -0.8767 0.3944
vn -0.7390 -0.4014 0.5411
vn -0.3132 0.7560 0.5748
vn 0.3132 0.7560 0.5748
vn 0.7390 -0.4014 0.5411
vn -0.2755 -0.8767 0.3944
vn -0.7560 0.3132 0.5748
vn 0.1875 0.0777 0.9792
vn 0.1191 -0.2875 0.9503
vn -0.1973 -0.1948 0.9608
vn -0.0777 0.1875 0.9792
vn 0.0777 0.1875 0.9792
vn 0.1973 -0.1948 0.9608
vn -0.1191 -0.2875 0.9503
vn -0.1875 0.0777 0.9792
vn -0.3302 0.8987 -0.2887
vn 0.3302 0.8987 -0.2887
vn 0.6581 -0.1980 -0.7264
vn -0.3278 -0.5916 -0.7366
vn -0.6041 0.6529 -0.4569
vn 0.6041 0.6529 -0.4569
vn 0.3278 -0.5916 -0.7366
vn -0.6581 -0.1980 -0.7264
vn 0.0519 -0.4670 0.8827
vn 0.0000 -0.3530 0.9356
vn 0.0069 -0.3504 0.9366
vn -0.0069 -0.3504 0.9366
vn -0.0519 -0.4670 0.8827
vn 0.5206 -0.7347 0.4349
vn -0.5206 -0.7347 0.4349
vn -0.3261 0.5519 0.7675
vn 0.6227 0.1837 0.7606
vn 0.3205 -0.8913 0.3206
vn -0.3205 -0.8913 0.3206
vn -0.6227 0.1837 0.7606
vn 0.3261 0.5519 0.7675
vn -0.3764 0.9088 -0.1802
vn -0.9084 0.3763 -0.1824
vn 0.9084 0.3763 -0.1824
vn -0.8571 -0.4884 -0.1641
vn 0.2360 -0.9660 -0.1055
vn -0.2360 -0.9660 -0.1055
vn 0.3753 0.9059 0.1961
vn 0.8571 -0.4884 -0.1641
vn 0.7560 0.3132 -0.5748
vn 0.2755 -0.8767 -0.3944
vn -0.7390 -0.4014 -0.5411
vn -0.3132 0.7560 -0.5748
vn 0.3132 0.7560 -0.5748
vn 0.7390 -0.4014 -0.5411
vn -0.2755 -0.8767 -0.3944
vn -0.7560 0.3132 -0.5748
vn 0.1875 0.0777 -0.9792
vn 0.1191 -0.2875 -0.9503
vn -0.1973 -0.1948 -0.9608
vn -0.0777 0.1875 -0.9792
vn 0.0777 0.1875 -0.9792
vn 0.1973 -0.1948 -0.9608
vn -0.1191 -0.2875 -0.9503
vn -0.1875 0.0777 -0.9792
vn -0.2535 0.9382 0.2358
vn 0.2357 0.9434 0.2331
vn 0.6612 -0.2235 0.7161
vn -0.2946 -0.6804 0.6710
vn -0.6254 0.6349 0.4537
vn 0.6136 0.6498 0.4487
vn 0.3033 -0.6773 0.6703
vn -0.6562 -0.2341 0.7174
vn 0.0079 -0.4963 -0.8681
vn 0.5653 -0.6836 -0.4617
vn -0.5515 -0.6991 -0.4552
vn -0.2991 0.6290 -0.7176
vn 0.6207 0.2204 -0.7525
vn 0.2296 -0.9321 -0.2802
vn -0.2098 -0.9377 -0.2770
vn -0.6262 0.2094 -0.7510
vn 0.2907 0.6320 -0.7184
vn 0.3764 0.9088 -0.1802
vn 0.2330 -0.9724 0.0151
vn -0.8616 -0.5068 -0.0274
vn 0.9230 0.3823 -0.0448
vn -0.3822 0.9227 0.0511
vn -0.3753 0.9059 0.1961
vn 0.8549 -0.4871 0.1787
vn -0.3823 0.9229 -0.0470
vn -0.2358 -0.9650 0.1151
vn 0.2358 -0.9650 0.1151
vn -0.8549 -0.4871 0.1787
vn 0.9055 0.3751 0.1985
vn -0.9055 0.3751 0.1985
vn -0.9228 0.3822 0.0487
vn -0.2330 -0.9723 -0.0164
vn 0.8616 -0.5068 0.0298
vn -0.8107 0.3824 0.4434
vn -0.2198 -0.9722 0.0810
vn -0.2450 0.9041 0.3501
vn 0.7820 -0.5069 -0.3626
vn 0.9322 0.3132 0.1813
vn 0.4215 -0.8767 0.2320
vn -0.4236 -0.4014 0.8121
vn -0.0268 0.7560 0.6540
vn 0.5350 0.7560 0.3771
vn 0.9021 -0.4014 0.1587
vn -0.0727 -0.8767 0.4756
vn -0.4240 0.3132 0.8498
vn 0.6011 0.0777 0.7954
vn 0.5270 -0.2875 0.7998
vn 0.2478 -0.1948 0.9490
vn 0.3633 0.1875 0.9126
vn 0.5026 0.1875 0.8440
vn 0.6018 -0.1948 0.7745
vn 0.3133 -0.2875 0.9051
vn 0.2648 0.0777 0.9612
vn -0.4238 0.8987 -0.1129
vn 0.1685 0.8987 -0.4049
vn 0.2692 -0.1980 -0.9425
vn -0.6197 -0.5916 -0.5157
vn -0.7439 0.6529 -0.1427
vn 0.3399 0.6529 -0.6769
vn -0.0316 -0.5916 -0.8056
vn -0.9115 -0.1980 -0.3606
vn 0.4368 -0.4670 0.7688
vn 0.4136 -0.3530 0.8392
vn 0.4203 -0.3504 0.8370
vn 0.4079 -0.3504 0.8431
vn 0.3437 -0.4670 0.8147
vn 0.6593 -0.7347 0.1599
vn -0.2747 -0.7347 0.6203
vn 0.0468 0.5519 0.8326
vn 0.8948 0.1837 0.4069
vn 0.4292 -0.8913 0.1459
vn -0.1457 -0.8913 0.4293
vn -0.2223 0.1837 0.9575
vn 0.6318 0.5519 0.5443
vn -0.8980 0.3756 0.2292
vn 0.7287 0.3756 -0.5727
vn -0.8441 -0.4876 0.2230
vn 0.1613 -0.9651 -0.2062
vn -0.2618 -0.9651 0.0023
vn 0.3615 0.9231 -0.1314
vn 0.6910 -0.4876 -0.5336
vn 0.4240 0.3132 -0.8498
vn 0.0727 -0.8767 -0.4756
vn -0.9021 -0.4014 -0.1587
vn -0.5350 0.7560 -0.3771
vn 0.0268 0.7560 -0.6540
vn 0.4236 -0.4014 -0.8121
vn -0.4215 -0.8767 -0.2320
vn -0.9322 0.3132 -0.1813
vn -0.2648 0.0777 -0.9612
vn -0.3133 -0.2875 -0.9051
vn -0.6018 -0.1948 -0.7745
vn -0.5026 0.1875 -0.8440
vn -0.3633 0.1875 -0.9126
vn -0.2478 -0.1948 -0.9490
vn -0.5270 -0.2875 -0.7998
vn -0.6011 0.0777 -0.7954
vn -0.1231 0.9382 0.3236
vn 0.3145 0.9434 0.1049
vn 0.9097 -0.2235 0.3500
vn 0.0324 -0.6804 0.7322
vn -0.3604 0.6349 0.6834
vn 0.7487 0.6498 0.1312
vn 0.5684 -0.6773 0.4672
vn -0.2714 -0.2341 0.9336
vn -0.3767 -0.4963 -0.7821
vn -0.3767 -0.4964 -0.7821
vn 0.3029 -0.6836 -0.6640
vn -0.6959 -0.6991 -0.1645
vn -0.5856 0.6290 -0.5114
vn 0.2240 0.2204 -0.9493
vn 0.0820 -0.9321 -0.3528
vn -0.3107 -0.9377 -0.1557
vn -0.8937 0.2094 -0.3967
vn -0.0569 0.6320 -0.7729
vn 0.7647 -0.5069 -0.3979
vn -0.1990 -0.9722 0.1232
vn -0.8441 0.3824 0.3758
vn 0.4269 0.9041 0.0189
vn -0.4206 0.9072 -0.0034
vn 0.8487 -0.4862 -0.2081
vn 0.3259 0.9232 -0.2037
vn -0.1564 -0.9639 0.2153
vn 0.2661 -0.9639 0.0071
vn -0.6820 -0.4862 0.5463
vn 0.9026 0.3743 -0.2126
vn -0.7184 0.3743 0.5864
vn 0.8616 -0.5068 -0.0274
vn -0.2330 -0.9724 0.0151
vn -0.9230 0.3823 -0.0448
vn 0.3798 0.9169 0.1228
vn 0.3822 0.9227 0.0511
vn 0.3823 0.9229 -0.0470
vn 0.2535 0.9072 -0.3357
vn 0.3802 0.9180 -0.1128
vn 0.8454 0.3824 -0.3729
vn -0.7639 -0.5069 0.3994
vn 0.1981 -0.9722 -0.1250
vn -0.3244 0.9231 0.2067
vn 0.3949 0.9169 -0.0578
vn 0.7308 -0.4989 -0.4659
vn -0.2302 -0.9710 0.0644
vn 0.2189 -0.9722 -0.0828
vn 0.1912 -0.9710 -0.1434
vn -0.7813 -0.5069 0.3641
vn -0.8146 -0.4989 0.2959
vn 0.8122 0.3824 -0.4406
vn 0.7735 0.3802 -0.5071
vn -0.8733 0.3802 0.3047
vn 0.2912 0.9180 -0.2693
vn -0.3601 0.9232 0.1344
vn 0.8177 -0.4985 -0.2880
vn -0.3909 0.9180 0.0669
vn -0.1895 -0.9708 0.1469
vn 0.2319 -0.9708 -0.0608
vn -0.7264 -0.4985 0.4731
vn 0.8767 0.3798 -0.2952
vn -0.7681 0.3798 0.5155
vn -0.2864 0.9169 0.2780
vn -0.3802 0.9180 -0.1128
vn -0.3798 0.9169 0.1228
vn 0.8615 -0.4989 -0.0948
vn -0.2349 -0.9710 -0.0440
vn 0.2349 -0.9710 -0.0440
vn -0.8615 -0.4989 -0.0948
vn 0.9180 0.3802 -0.1128
vn -0.9180 0.3802 -0.1128
vn 0.8607 -0.4985 0.1032
vn -0.2349 -0.9708 0.0480
vn 0.2349 -0.9708 0.0480
vn -0.8607 -0.4985 0.1032
vn 0.9169 0.3798 0.1228
vn -0.9169 0.3798 0.1228
usemtl 039BE5
s off
f 239//1 89//1 90//1 241//1
f 231//2 85//2 86//2 233//2
f 235//3 87//3 88//3 237//3
f 7//4 8//4 16//4 15//4
f 5//5 6//5 14//5 13//5
f 3//6 4//6 12//6 11//6
f 1//7 2//7 10//7 9//7
f 8//8 1//8 9//8 16//8
f 6//9 7//9 15//9 14//9
f 4//10 5//10 13//10 12//10
f 2//11 3//11 11//11 10//11
f 15//12 16//12 24//12 23//12
f 13//13 14//13 22//13 21//13
f 11//14 12//14 20//14 19//14
f 9//15 10//15 18//15 17//15
f 16//16 9//16 17//16 24//16
f 14//17 15//17 23//17 22//17
f 12//18 13//18 21//18 20//18
f 10//19 11//19 19//19 18//19
f 17//20 18//20 26//20 25//20
f 24//21 17//21 25//21 32//21
f 22//22 23//22 31//22 30//22
f 20//23 21//23 29//23 28//23
f 18//24 19//24 27//24 26//24
f 23//25 24//25 32//25 31//25
f 21//26 22//26 30//26 29//26
f 19//27 20//27 28//27 27//27
f 31//28 32//28 40//28 39//28
f 29//29 30//29 38//29 37//29
f 27//29 28//29 36//29 35//29
f 25//30 26//30 34//30 33//30
f 32//31 25//31 33//31 40//31
f 30//29 31//29 39//29 38//29
f 28//29 29//29 37//29 36//29
f 26//32 27//32 35//32 34//32
f 34//33 35//33 41//33
f 39//34 40//34 41//34
f 37//35 38//35 41//35
f 35//36 36//36 41//36
f 33//37 34//37 41//37
f 40//38 33//38 41//38
f 38//39 39//39 41//39
f 36//40 37//40 41//40
f 42//41 43//41 215//41 214//41
f 215//42 43//42 44//42 217//42
f 225//43 48//43 49//43 227//43
f 217//44 44//44 45//44 219//44
f 221//45 46//45 47//45 223//45
f 219//46 45//46 46//46 221//46
f 243//47 1//47 8//47 242//47
f 223//48 47//48 48//48 225//48
f 48//49 56//49 57//49 49//49
f 46//50 54//50 55//50 47//50
f 44//51 52//51 53//51 45//51
f 42//52 50//52 51//52 43//52
f 49//53 57//53 50//53 42//53
f 47//54 55//54 56//54 48//54
f 45//55 53//55 54//55 46//55
f 43//56 51//56 52//56 44//56
f 56//57 64//57 65//57 57//57
f 54//58 62//58 63//58 55//58
f 52//59 60//59 61//59 53//59
f 50//60 58//60 59//60 51//60
f 57//61 65//61 58//61 50//61
f 55//62 63//62 64//62 56//62
f 53//63 61//63 62//63 54//63
f 51//64 59//64 60//64 52//64
f 58//65 66//65 67//65 59//65
f 65//66 73//66 66//66 58//66
f 63//67 71//67 72//67 64//67
f 61//68 69//68 70//68 62//68
f 59//69 67//69 68//69 60//69
f 64//70 72//70 73//70 65//70
f 62//71 70//71 71//71 63//71
f 60//72 68//72 69//72 61//72
f 72//73 80//73 81//73 73//73
f 70//73 78//73 79//73 71//73
f 68//73 76//73 77//73 69//73
f 66//73 74//73 75//73 67//73
f 73//73 81//73 74//73 66//73
f 71//73 79//73 80//73 72//73
f 69//73 77//73 78//73 70//73
f 67//73 75//73 76//73 68//73
f 75//74 82//74 76//74
f 80//75 82//75 81//75
f 78//76 82//76 79//76
f 76//77 82//77 77//77
f 74//78 82//78 75//78
f 81//79 82//79 74//79
f 79//80 82//80 80//80
f 77//81 82//81 78//81
f 42//82 214//82 227//82 49//82
f 87//83 222//83 224//83 88//83
f 85//84 218//84 220//84 86//84
f 89//85 226//85 228//85 90//85
f 84//86 229//86 244//86 83//86
f 1//87 243//87 230//87 2//87
f 6//88 238//88 240//88 7//88
f 216//89 84//89 83//89 213//89
f 4//90 234//90 236//90 5//90
f 5//91 236//91 238//91 6//91
f 3//92 232//92 234//92 4//92
f 7//93 240//93 242//93 8//93
f 2//94 230//94 232//94 3//94
usemtl 673AB7
f 229//95 84//95 85//95 231//95
f 233//96 86//96 87//96 235//96
f 237//97 88//97 89//97 239//97
f 197//98 174//98 175//98 199//98
f 201//99 176//99 177//99 203//99
f 91//100 211//100 198//100 92//100
f 205//101 178//101 179//101 207//101
f 97//102 98//102 106//102 105//102
f 95//103 96//103 104//103 103//103
f 93//104 94//104 102//104 101//104
f 91//105 92//105 100//105 99//105
f 98//106 91//106 99//106 106//106
f 96//107 97//107 105//107 104//107
f 94//108 95//108 103//108 102//108
f 92//109 93//109 101//109 100//109
f 105//110 106//110 114//110 113//110
f 103//111 104//111 112//111 111//111
f 101//112 102//112 110//112 109//112
f 99//113 100//113 108//113 107//113
f 106//114 99//114 107//114 114//114
f 104//115 105//115 113//115 112//115
f 102//116 103//116 111//116 110//116
f 100//117 101//117 109//117 108//117
f 107//118 108//118 116//118 115//118
f 114//119 107//119 115//119 122//119
f 112//120 113//120 121//120 120//120
f 110//121 111//121 119//121 118//121
f 108//122 109//122 117//122 116//122
f 113//123 114//123 122//123 121//123
f 111//124 112//124 120//124 119//124
f 109//125 110//125 118//125 117//125
f 121//126 122//126 130//126 129//126
f 119//127 120//127 128//127 127//127
f 117//127 118//127 126//127 125//127
f 115//128 116//128 124//128 123//128
f 122//129 115//129 123//129 130//129
f 120//127 121//127 129//127 128//127
f 118//127 119//127 127//127 126//127
f 116//130 117//130 125//130 124//130
f 124//131 125//131 131//131
f 129//132 130//132 131//132
f 127//133 128//133 131//133
f 125//134 126//134 131//134
f 123//135 124//135 131//135
f 130//136 123//136 131//136
f 128//137 129//137 131//137
f 126//138 127//138 131//138
f 183//139 133//139 134//139 185//139
f 193//140 138//140 139//140 195//140
f 185//141 134//141 135//141 187//141
f 189//142 136//142 137//142 191//142
f 187//143 135//143 136//143 189//143
f 212//144 209//144 180//144 173//144
f 191//145 137//145 138//145 193//145
f 138//146 146//146 147//146 139//146
f 136//147 144//147 145//147 137//147
f 134//148 142//148 143//148 135//148
f 132//149 140//149 141//149 133//149
f 139//150 147//150 140//150 132//150
f 137//151 145//151 146//151 138//151
f 135//152 143//152 144//152 136//152
f 133//153 141//153 142//153 134//153
f 146//154 154//154 155//154 147//154
f 144//155 152//155 153//155 145//155
f 142//156 150//156 151//156 143//156
f 140//157 148//157 149//157 141//157
f 147//158 155//158 148//158 140//158
f 145//159 153//159 154//159 146//159
f 143//160 151//160 152//160 144//160
f 141//161 149//161 150//161 142//161
f 148//162 156//162 157//162 149//162
f 155//163 163//163 156//163 148//163
f 153//164 161//164 162//164 154//164
f 151//165 159//165 160//165 152//165
f 149//166 157//166 158//166 150//166
f 154//167 162//167 163//167 155//167
f 152//168 160//168 161//168 153//168
f 150//169 158//169 159//169 151//169
f 162//170 170//170 171//170 163//170
f 160//170 168//170 169//170 161//170
f 158//171 166//171 167//171 159//171
f 156//170 164//170 165//170 157//170
f 163//170 171//170 164//170 156//170
f 161//170 169//170 170//170 162//170
f 159//170 167//170 168//170 160//170
f 157//170 165//170 166//170 158//170
f 165//172 172//172 166//172
f 170//173 172//173 171//173
f 168//174 172//174 169//174
f 166//175 172//175 167//175
f 164//176 172//176 165//176
f 171//177 172//177 164//177
f 169//178 172//178 170//178
f 167//179 172//179 168//179
f 178//180 192//180 194//180 179//180
f 176//181 188//181 190//181 177//181
f 174//182 184//182 186//182 175//182
f 211//183 91//183 98//183 210//183
f 132//184 133//184 183//184 182//184
f 96//185 206//185 208//185 97//185
f 180//186 196//186 181//186 173//186
f 94//187 202//187 204//187 95//187
f 95//188 204//188 206//188 96//188
f 93//189 200//189 202//189 94//189
f 97//190 208//190 210//190 98//190
f 92//191 198//191 200//191 93//191
f 88//192 224//192 226//192 89//192
f 86//193 220//193 222//193 87//193
f 84//194 216//194 218//194 85//194
f 244//195 243//195 242//195 241//195
f 90//196 83//196 244//196 241//196
f 213//197 83//197 90//197 228//197
f 132//198 182//198 195//198 139//198
f 214//199 213//199 228//199 227//199
usemtl DD9944
f 207//200 179//200 180//200 209//200
f 199//201 175//201 176//201 201//201
f 203//202 177//202 178//202 205//202
f 212//203 173//203 174//203 197//203
f 211//204 210//204 209//204 212//204
f 192//205 191//205 193//205 194//205
f 188//206 187//206 189//206 190//206
f 177//207 190//207 192//207 178//207
f 190//208 189//208 191//208 192//208
f 175//209 186//209 188//209 176//209
f 186//210 185//210 187//210 188//210
f 179//211 194//211 196//211 180//211
f 194//212 193//212 195//212 196//212
f 184//213 183//213 185//213 186//213
f 196//214 195//214 182//214 181//214
f 174//215 173//215 181//215 184//215
f 206//216 205//216 207//216 208//216
f 183//217 184//217 181//217 182//217
f 202//218 201//218 203//218 204//218
f 204//219 203//219 205//219 206//219
f 200//220 199//220 201//220 202//220
f 208//221 207//221 209//221 210//221
f 198//222 197//222 199//222 200//222
f 198//223 211//223 212//223 197//223
usemtl 673AB7
f 215//224 216//224 213//224 214//224
f 229//225 230//225 243//225 244//225
f 224//226 223//226 225//226 226//226
f 220//227 219//227 221//227 222//227
f 222//228 221//228 223//228 224//228
f 218//229 217//229 219//229 220//229
f 226//230 225//230 227//230 228//230
f 216//231 215//231 217//231 218//231
f 238//232 237//232 239//232 240//232
f 234//233 233//233 235//233 236//233
f 236//234 235//234 237//234 238//234
f 232//235 231//235 233//235 234//235
f 240//236 239//236 241//236 242//236
f 230//237 229//237 231//237 232//237
